<?xml version="1.0" standalone="no"?>
<!DOCTYPE svg PUBLIC "-//W3C//DTD SVG 20010904//EN"
 "http://www.w3.org/TR/2001/REC-SVG-20010904/DTD/svg10.dtd">
<svg version="1.0" xmlns="http://www.w3.org/2000/svg"
 width="512.000000pt" height="512.000000pt" viewBox="0 0 512.000000 512.000000"
 preserveAspectRatio="xMidYMid meet">
<metadata>
Created by potrace 1.14, written by Peter Selinger 2001-2017
</metadata>
<g transform="translate(0.000000,512.000000) scale(0.100000,-0.100000)"
fill="#000000" stroke="none">
<path d="M4120 4810 l0 -210 -50 0 -50 0 0 -200 0 -200 50 0 50 0 0 -620 0
-620 -180 0 -180 0 0 200 0 200 -200 0 -200 0 0 -50 0 -50 -325 0 -325 0 0
150 0 150 275 0 275 0 0 160 0 160 -250 0 -250 0 -50 -50 -50 -50 0 110 0 110
-100 0 -100 0 0 -110 0 -110 -50 50 -50 50 -250 0 -250 0 0 -160 0 -160 275 0
275 0 0 -150 0 -150 -325 0 -325 0 0 50 0 50 -200 0 -200 0 0 -200 0 -200
-307 0 c-346 0 -400 -7 -518 -64 -176 -85 -310 -272 -330 -462 -2 -22 -4 -371
-4 -776 l-1 -738 -50 0 -50 0 0 -200 0 -200 50 0 50 0 0 -210 0 -210 400 0
400 0 0 210 0 210 50 0 50 0 0 200 0 200 -50 0 -50 0 0 620 0 620 180 0 180 0
0 -200 0 -200 200 0 200 0 0 50 0 50 800 0 800 0 0 -50 0 -50 200 0 200 0 0
200 0 200 308 0 c338 0 398 7 506 58 155 74 274 212 320 372 8 30 17 69 20 85
2 17 5 366 5 778 l1 747 50 0 50 0 0 200 0 200 -50 0 -50 0 0 210 0 210 -400
0 -400 0 0 -210z"/>
</g>
</svg>
